<svg width="34" height="30" viewBox="0 0 34 30" fill="none" xmlns="http://www.w3.org/2000/svg">
<path d="M31.3781 3.30921L29.2665 2.42675V16.6563L33.0958 7.42208C33.7419 5.81475 33.0012 3.97105 31.3781 3.30921ZM0.649788 9.13972L8.46582 27.9707C8.69597 28.5436 9.08856 29.0368 9.5953 29.3895C10.102 29.7423 10.7008 29.9393 11.318 29.9562C11.7278 29.9562 12.1532 29.8774 12.5629 29.7041L24.1767 24.8978C25.3585 24.4093 26.0834 23.2432 26.1149 22.0771C26.1307 21.6674 26.0519 21.2104 25.9101 20.8007L18.031 1.96977C17.8083 1.39305 17.4171 0.896733 16.9084 0.545415C16.3997 0.194097 15.797 0.00404627 15.1788 0C14.7691 0 14.3594 0.0945489 13.9654 0.236372L2.36742 5.0426C1.59648 5.35831 0.982461 5.96725 0.660366 6.73555C0.338271 7.50385 0.334467 8.36861 0.649788 9.13972ZM26.0992 3.15163C26.0992 2.31576 25.7671 1.51413 25.1761 0.92309C24.585 0.332045 23.7834 0 22.9475 0H20.6626L26.0992 13.1423" fill="#F4F4F4"/>
</svg>
